<?xml version="1.0" encoding="UTF-8" standalone="no"?>
<!DOCTYPE svg PUBLIC "-//W3C//DTD SVG 1.1//EN"
 "http://www.w3.org/Graphics/SVG/1.1/DTD/svg11.dtd">
<!--
Pico W + PN532 (SPI) + PowerBoost 1000C
- PowerBoost 5V -> Pico VSYS
- Common GND
- LBO -> divider (100k top, 147k bottom) -> Pico GP22
- EN -> SPST switch -> GND
- PN532 on 3V3 and SPI1: SCK=GP10(14), MOSI=GP11(15), MISO=GP12(16), CS=GP8(11), RST=GP25(22)
- Optional power LED on 3V3 with 2.2–3.3k
-->
<svg xmlns="http://www.w3.org/2000/svg" width="1150" height="760" viewBox="0 0 1150 760">
  <defs>
    <style>
      .box { fill:#0b1220; stroke:#5a6b9a; stroke-width:2; rx:10; }
      .title { fill:#e6e9ef; font: bold 16px system-ui, -apple-system, Segoe UI, Roboto, sans-serif; }
      .label { fill:#c8d0e0; font: 14px system-ui, -apple-system, Segoe UI, Roboto, sans-serif; }
      .pin   { fill:#a5b1c8; font: 12px system-ui, -apple-system, Segoe UI, Roboto, sans-serif; }
      .line  { stroke:#9fd68f; stroke-width:2.5; }
      .gline { stroke:#8fb3ff; stroke-width:2.5; }
      .wire  { stroke:#ffc96b; stroke-width:2.5; }
      .spiw  { stroke:#ff9fb2; stroke-width:2.5; }
      .groundsym { stroke:#a5b1c8; stroke-width:2; }
      .res { fill:none; stroke:#ffd86b; stroke-width:2.5; }
      .switch { fill:none; stroke:#e6e9ef; stroke-width:2.5; }
      .dot { fill:#e6e9ef; }
      .note { fill:#93a1ba; font: 12px system-ui, -apple-system, Segoe UI, Roboto, sans-serif; }
    </style>
    <!-- simple resistor symbol -->
    <symbol id="resistor" viewBox="0 0 40 12">
      <polyline class="res" points="0,6 6,6 10,2 14,10 18,2 22,10 26,2 30,10 34,6 40,6"/>
    </symbol>
    <!-- ground symbol -->
    <symbol id="gnd" viewBox="0 0 20 18">
      <line class="groundsym" x1="10" y1="0" x2="10" y2="6"/>
      <line class="groundsym" x1="2" y1="6" x2="18" y2="6"/>
      <line class="groundsym" x1="4" y1="9" x2="16" y2="9"/>
      <line class="groundsym" x1="6" y1="12" x2="14" y2="12"/>
    </symbol>
  </defs>

  <!-- PowerBoost 1000C -->
  <rect x="40" y="70" width="300" height="255" class="box"/>
  <text x="55" y="95" class="title">PowerBoost 1000C</text>
  <!-- PB pins -->
  <text x="55" y="125" class="pin">JST BAT (LiPo 3.7V)</text>
  <text x="55" y="155" class="pin">5V (OUT)</text>
  <text x="55" y="185" class="pin">GND</text>
  <text x="55" y="215" class="pin">EN (enable)</text>
  <text x="55" y="245" class="pin">LBO (Low-Batt, active-low)</text>
  <text x="55" y="275" class="pin">USB (charge)</text>

  <!-- Pico W -->
  <rect x="440" y="40" width="360" height="320" class="box"/>
  <text x="455" y="65" class="title">Raspberry Pi Pico W</text>
  <text x="455" y="95"  class="pin">VSYS (pin 39)</text>
  <text x="455" y="125" class="pin">GND (e.g., pin 28/38)</text>
  <text x="455" y="155" class="pin">3V3 OUT (pin 36)</text>
  <text x="455" y="185" class="pin">GP22 (pin 29) &mdash; LBO sense</text>
  <text x="455" y="215" class="pin">GP10 SCK (pin 14)</text>
  <text x="455" y="235" class="pin">GP11 MOSI (pin 15)</text>
  <text x="455" y="255" class="pin">GP12 MISO (pin 16)</text>
  <text x="455" y="275" class="pin">GP8  CS  (pin 11)</text>
  <text x="455" y="295" class="pin">GP25 RST (pin 22)</text>

  <!-- PN532 -->
  <rect x="860" y="70" width="250" height="270" class="box"/>
  <text x="875" y="95" class="title">PN532 (SPI)</text>
  <text x="875" y="125" class="pin">VCC (3.3V)</text>
  <text x="875" y="145" class="pin">GND</text>
  <text x="875" y="165" class="pin">SCK</text>
  <text x="875" y="185" class="pin">MOSI</text>
  <text x="875" y="205" class="pin">MISO</text>
  <text x="875" y="225" class="pin">SS / CS</text>
  <text x="875" y="245" class="pin">RST</text>
  <text x="875" y="265" class="pin">IRQ (optional)</text>

  <!-- Power connections -->
  <!-- 5V OUT -> VSYS -->
  <line x1="195" y1="155" x2="440" y2="95" class="line"/>
  <circle cx="195" cy="155" r="3" class="dot"/><circle cx="440" cy="95" r="3" class="dot"/>
  <text x="255" y="110" class="label">5V → VSYS</text>

  <!-- GND common -->
  <line x1="155" y1="185" x2="440" y2="125" class="gline"/>
  <circle cx="155" cy="185" r="3" class="dot"/><circle cx="440" cy="125" r="3" class="dot"/>
  <line x1="440" y1="125" x2="860" y2="145" class="gline"/>
  <circle cx="860" cy="145" r="3" class="dot"/>
  <text x="520" y="140" class="label">Common GND</text>

  <!-- EN switch to GND -->
  <line x1="155" y1="215" x2="285" y2="215" class="wire"/>
  <path d="M285,205 L305,215 L285,225" class="switch"/>
  <line x1="305" y1="215" x2="335" y2="215" class="wire"/>
  <use href="#gnd" x="335" y="207"/>
  <text x="200" y="205" class="label">EN → SPST → GND</text>

  <!-- LBO divider to GP22 -->
  <line x1="155" y1="245" x2="345" y2="245" class="wire"/>
  <circle cx="345" cy="245" r="3" class="dot"/>
  <!-- Rtop -->
  <use href="#resistor" x="345" y="239"/>
  <text x="355" y="232" class="note">Rtop 100k</text>
  <!-- Node to GP22 -->
  <line x1="385" y1="245" x2="520" y2="185" class="wire"/>
  <circle cx="520" cy="185" r="3" class="dot"/>
  <text x="430" y="200" class="label">→ GP22 (pin 29)</text>
  <!-- Rbottom to GND (147k = 100k+47k) -->
  <line x1="385" y1="245" x2="385" y2="300" class="wire"/>
  <use href="#resistor" x="365" y="300"/>
  <text x="375" y="295" class="note">Rbottom 100k + 47k (series)</text>
  <line x1="385" y1="312" x2="385" y2="340" class="wire"/>
  <use href="#gnd" x="375" y="340"/>

  <!-- 3V3 to PN532 VCC -->
  <line x1="565" y1="155" x2="860" y2="125" class="line"/>
  <circle cx="565" cy="155" r="3" class="dot"/><circle cx="860" cy="125" r="3" class="dot"/>
  <text x="710" y="140" class="label">3V3 → VCC</text>

  <!-- SPI wires -->
  <!-- SCK -->
  <line x1="565" y1="215" x2="860" y2="165" class="spiw"/>
  <circle cx="565" cy="215" r="3" class="dot"/><circle cx="860" cy="165" r="3" class="dot"/>
  <text x="700" y="190" class="label">SCK (GP10)</text>
  <!-- MOSI -->
  <line x1="565" y1="235" x2="860" y2="185" class="spiw"/>
  <circle cx="565" cy="235" r="3" class="dot"/><circle cx="860" cy="185" r="3" class="dot"/>
  <text x="700" y="210" class="label">MOSI (GP11)</text>
  <!-- MISO -->
  <line x1="565" y1="255" x2="860" y2="205" class="spiw"/>
  <circle cx="565" cy="255" r="3" class="dot"/><circle cx="860" cy="205" r="3" class="dot"/>
  <text x="700" y="230" class="label">MISO (GP12)</text>
  <!-- CS -->
  <line x1="565" y1="275" x2="860" y2="225" class="spiw"/>
  <circle cx="565" cy="275" r="3" class="dot"/><circle cx="860" cy="225" r="3" class="dot"/>
  <text x="700" y="250" class="label">CS (GP8)</text>
  <!-- RST -->
  <line x1="565" y1="295" x2="860" y2="245" class="spiw"/>
  <circle cx="565" cy="295" r="3" class="dot"/><circle cx="860" cy="245" r="3" class="dot"/>
  <text x="700" y="270" class="label">RST (GP25)</text>

  <!-- Optional power LED -->
  <rect x="40" y="360" width="1070" height="340" class="box"/>
  <text x="55" y="385" class="title">Optional: Low-current Power LED</text>
  <text x="55" y="410" class="note">3V3(OUT) (pin 36) → 2.2–3.3kΩ → LED → GND</text>
  <line x1="220" y1="450" x2="360" y2="450" class="line"/>
  <use href="#resistor" x="360" y="444"/>
  <text x="352" y="438" class="note">2.2–3.3kΩ</text>
  <!-- simple LED symbol -->
  <circle cx="420" cy="450" r="7" fill="none" stroke="#e6e9ef" stroke-width="2"/>
  <line x1="427" y1="450" x2="445" y2="450" class="switch"/>
  <line x1="445" y1="450" x2="515" y2="450" class="line"/>
  <use href="#gnd" x="515" y="442"/>
  <text x="220" y="435" class="label">From 3V3(OUT)</text>
  <text x="530" y="465" class="label">GND</text>

  <!-- Footer notes -->
  <text x="55" y="520" class="note">• Pico GPIOs are 3.3 V-only → LBO must be level-shifted with the divider above.</text>
  <text x="55" y="540" class="note">• EN→GND disables the booster’s 5 V; if Pico is also on USB, it will still run from USB.</text>
  <text x="55" y="560" class="note">• PN532 is a 3.3 V device: power from 3V3(OUT), not 5 V.</text>
  <text x="55" y="580" class="note">• SPI1 pins used: SCK=GP10(14), MOSI=GP11(15), MISO=GP12(16), CS=GP8(11), RST=GP25(22).</text>
</svg>
